<?xml version="1.0" encoding="utf-8"?>
<!-- Generator: Adobe Illustrator 19.0.0, SVG Export Plug-In . SVG Version: 6.00 Build 0)  -->
<svg version="1.1" id="Capa_1" xmlns="http://www.w3.org/2000/svg" xmlns:xlink="http://www.w3.org/1999/xlink" x="0px" y="0px"
	 viewBox="-361 172 236.5 218" style="enable-background:new -361 172 236.5 218;" xml:space="preserve">
<style type="text/css">
	.st0{fill:#333333;}
	.st1{enable-background:new    ;}
	.st2{fill:#FFFFFF;}
</style>
<g id="_x30_4_1_">
	<g id="Anagram">
		<rect id="XMLID_4_" x="-357.1" y="174.5" class="st0" width="228.8" height="213"/>
		<g class="st1">
			<path class="st2" d="M-315.4,256.8l9.4,19.9l9.4-19.9h10.9l-15.5,28.5v14.7h-10v-14.9l-15.2-28.5h10.9V256.8z"/>
			<path class="st2" d="M-249.7,291.2v8.8H-280v-43.3h29.9v8.8H-270v8.4h17v8.1h-17v9.2H-249.7z"/>
			<path class="st2" d="M-245.5,278c0-2.7,0.5-5.2,1.4-7.8c0.9-2.5,2.3-4.8,4.2-6.9s4.2-3.8,6.9-5s5.8-1.9,9.1-1.9
				c4.1,0,7.7,0.9,10.6,2.7c3,1.7,5.2,4.1,6.7,6.9l-7.7,5.3c-0.5-1.1-1.1-2-1.9-2.8c-0.8-0.8-1.6-1.4-2.5-1.9
				c-0.9-0.5-1.9-0.8-2.8-0.9c-0.9-0.2-1.9-0.3-2.8-0.3c-1.9,0-3.6,0.3-5,1.1c-1.4,0.8-2.7,1.7-3.6,3c-0.9,1.3-1.6,2.7-2,4.2
				c-0.5,1.6-0.6,3.1-0.6,4.7c0,1.7,0.3,3.3,0.8,5c0.5,1.6,1.3,3,2.3,4.2c0.9,1.3,2.2,2.2,3.6,3c1.4,0.8,3,1.1,4.7,1.1
				c0.9,0,1.9-0.2,2.8-0.3s1.9-0.6,2.8-1.1c0.9-0.5,1.7-1.1,2.3-1.9c0.8-0.8,1.3-1.7,1.7-2.8l8.1,4.8c-0.6,1.6-1.6,3-3,4.2
				c-1.3,1.3-2.8,2.3-4.4,3.1c-1.7,0.8-3.4,1.6-5.3,1.9c-1.9,0.5-3.8,0.6-5.5,0.6c-3.1,0-5.9-0.6-8.6-1.9c-2.7-1.3-4.8-3-6.7-5.2
				c-1.9-2.2-3.3-4.5-4.4-7.2C-245,283.5-245.5,280.8-245.5,278z"/>
			<path class="st2" d="M-199.7,300.1v-43.3h19.5c2,0,3.9,0.5,5.6,1.3c1.7,0.8,3.3,2,4.5,3.3c1.3,1.4,2.2,3,3,4.7s1.1,3.4,1.1,5.3
				c0,1.4-0.2,2.7-0.5,3.9c-0.3,1.3-0.8,2.3-1.4,3.4c-0.6,1.1-1.4,2-2.2,3c-0.9,0.9-1.9,1.6-3,2.2l9.5,16.1h-11.3l-8.3-13.9h-6.6
				v13.9h-10.2V300.1z M-189.7,277.4h9.1c1.3,0,2.2-0.6,3-1.7c0.8-1.1,1.3-2.5,1.3-4.2s-0.5-3.3-1.4-4.2c-0.9-0.9-2-1.6-3.1-1.6
				h-8.9v11.7H-189.7z"/>
		</g>
	</g>
</g>
</svg>
