<?xml version="1.0" encoding="utf-8"?>
<!-- Generator: Adobe Illustrator 19.0.0, SVG Export Plug-In . SVG Version: 6.00 Build 0)  -->
<svg version="1.1" id="Capa_1" xmlns="http://www.w3.org/2000/svg" xmlns:xlink="http://www.w3.org/1999/xlink" x="0px" y="0px"
	 viewBox="-247 172 465 218" style="enable-background:new -247 172 465 218;" xml:space="preserve">
<style type="text/css">
	.st0{fill:#333333;}
	.st1{enable-background:new    ;}
	.st2{fill:#FFFFFF;}
</style>
<g id="_x30_4_1_">
	<g id="Anagram">
		<rect id="XMLID_4_" x="-192" y="212.9" class="st0" width="146.3" height="136.2"/>
		<g class="st1">
			<path class="st2" d="M-165.3,265.5l6,12.7l6-12.7h7l-9.9,18.2v9.4h-6.4v-9.5l-9.7-18.2H-165.3z"/>
			<path class="st2" d="M-123.4,287.5v5.6h-19.4v-27.7h19.1v5.6h-12.7v5.4h10.9v5.2h-10.9v5.9H-123.4z"/>
			<path class="st2" d="M-120.7,279.1c0-1.7,0.3-3.3,0.9-5c0.6-1.6,1.5-3.1,2.7-4.4c1.2-1.3,2.7-2.4,4.4-3.2s3.7-1.2,5.8-1.2
				c2.6,0,4.9,0.6,6.8,1.7c1.9,1.1,3.3,2.6,4.3,4.4l-4.9,3.4c-0.3-0.7-0.7-1.3-1.2-1.8c-0.5-0.5-1-0.9-1.6-1.2
				c-0.6-0.3-1.2-0.5-1.8-0.6s-1.2-0.2-1.8-0.2c-1.2,0-2.3,0.2-3.2,0.7c-0.9,0.5-1.7,1.1-2.3,1.9c-0.6,0.8-1,1.7-1.3,2.7
				c-0.3,1-0.4,2-0.4,3c0,1.1,0.2,2.1,0.5,3.2c0.3,1,0.8,1.9,1.5,2.7c0.6,0.8,1.4,1.4,2.3,1.9c0.9,0.5,1.9,0.7,3,0.7
				c0.6,0,1.2-0.1,1.8-0.2c0.6-0.1,1.2-0.4,1.8-0.7c0.6-0.3,1.1-0.7,1.5-1.2c0.5-0.5,0.8-1.1,1.1-1.8l5.2,3.1c-0.4,1-1,1.9-1.9,2.7
				c-0.8,0.8-1.8,1.5-2.8,2c-1.1,0.5-2.2,1-3.4,1.2c-1.2,0.3-2.4,0.4-3.5,0.4c-2,0-3.8-0.4-5.5-1.2c-1.7-0.8-3.1-1.9-4.3-3.3
				c-1.2-1.4-2.1-2.9-2.8-4.6C-120.4,282.6-120.7,280.9-120.7,279.1z"/>
			<path class="st2" d="M-91.3,293.2v-27.7h12.5c1.3,0,2.5,0.3,3.6,0.8c1.1,0.5,2.1,1.3,2.9,2.1c0.8,0.9,1.4,1.9,1.9,3
				c0.5,1.1,0.7,2.2,0.7,3.4c0,0.9-0.1,1.7-0.3,2.5s-0.5,1.5-0.9,2.2c-0.4,0.7-0.9,1.3-1.4,1.9c-0.6,0.6-1.2,1-1.9,1.4l6.1,10.3
				h-7.2l-5.3-8.9h-4.2v8.9H-91.3z M-84.9,278.7h5.8c0.8,0,1.4-0.4,1.9-1.1c0.5-0.7,0.8-1.6,0.8-2.7c0-1.1-0.3-2.1-0.9-2.7
				c-0.6-0.7-1.3-1-2-1h-5.7V278.7z"/>
		</g>
	</g>
	<g class="st1">
		<path class="st0" d="M-2.7,253.6c1.3,0,2.4-0.3,3.3-0.8c0.9-0.5,1.6-1.2,2.1-2.1c0.5-0.8,0.9-1.8,1.1-2.9s0.3-2.2,0.3-3.3v-12.9h4
			v12.9c0,1.7-0.2,3.4-0.6,4.9c-0.4,1.5-1,2.9-1.9,4c-0.9,1.2-2,2.1-3.4,2.7c-1.4,0.7-3.1,1-5,1c-2,0-3.7-0.4-5.1-1.1
			c-1.4-0.7-2.5-1.6-3.4-2.8c-0.9-1.2-1.5-2.5-1.9-4.1c-0.4-1.5-0.6-3.1-0.6-4.7v-12.9h4v12.9c0,1.2,0.1,2.3,0.3,3.4
			c0.2,1.1,0.6,2,1.1,2.9c0.5,0.8,1.2,1.5,2.1,2S-4,253.6-2.7,253.6z"/>
		<path class="st0" d="M18.1,231.7l7,10l7-10h4.4l-9.3,12.9l9,12.5h-4.4l-6.7-9.6l-6.7,9.6H14l9-12.5l-9.3-12.9H18.1z"/>
		<path class="st0" d="M70.6,257l-2.3-2.4c-1,0.9-2.2,1.6-3.4,2.1c-1.3,0.5-2.6,0.7-3.9,0.7c-1.2,0-2.4-0.2-3.4-0.6
			c-1-0.4-1.9-0.9-2.6-1.6c-0.7-0.7-1.3-1.4-1.7-2.3c-0.4-0.9-0.6-1.8-0.6-2.8c0-0.8,0.1-1.6,0.4-2.2c0.3-0.7,0.6-1.3,1-1.9
			c0.4-0.6,0.9-1.1,1.5-1.6c0.6-0.5,1.2-1,1.8-1.4c-0.5-0.6-1-1.1-1.4-1.6c-0.4-0.5-0.7-1-0.9-1.4c-0.2-0.4-0.4-0.9-0.5-1.3
			c-0.1-0.4-0.2-0.9-0.2-1.3c0-0.9,0.2-1.6,0.5-2.4c0.3-0.7,0.8-1.3,1.4-1.9c0.6-0.5,1.3-0.9,2.1-1.2c0.8-0.3,1.7-0.4,2.7-0.4
			c0.9,0,1.7,0.1,2.5,0.4c0.8,0.2,1.5,0.6,2.1,1c0.6,0.5,1.1,1,1.4,1.7c0.3,0.7,0.5,1.4,0.5,2.3c0,0.7-0.1,1.4-0.4,2s-0.6,1.2-1,1.7
			c-0.4,0.5-0.9,1-1.5,1.5c-0.6,0.5-1.2,1-1.9,1.4l5.7,6c0.4-0.8,0.7-1.7,0.9-2.7s0.3-2,0.3-3.1h3.2c0,1.6-0.2,3.1-0.6,4.5
			c-0.4,1.4-0.9,2.6-1.6,3.7l5.1,5.3H70.6z M61.3,254.3c0.9,0,1.7-0.2,2.6-0.5c0.8-0.3,1.6-0.8,2.3-1.4l-6.6-7
			c-1,0.7-1.8,1.4-2.4,2.2c-0.6,0.8-0.9,1.6-0.9,2.6c0,0.6,0.1,1.2,0.4,1.7c0.3,0.5,0.6,0.9,1.1,1.3c0.5,0.4,1,0.6,1.6,0.8
			S60.6,254.3,61.3,254.3z M57.9,237.1c0,0.2,0,0.5,0.1,0.7c0.1,0.2,0.2,0.5,0.4,0.8c0.2,0.3,0.4,0.6,0.8,1c0.3,0.4,0.7,0.8,1.2,1.3
			c1.1-0.7,2-1.4,2.6-2c0.6-0.6,0.9-1.3,0.9-2.1c0-0.8-0.3-1.4-0.8-1.8c-0.5-0.5-1.2-0.7-2.1-0.7c-0.9,0-1.6,0.3-2.2,0.8
			C58.2,235.7,57.9,236.3,57.9,237.1z"/>
	</g>
	<g class="st1">
		<path class="st0" d="M4.5,289.1c-2.1,2.2-4.6,3.3-7.4,3.3c-1.7,0-3.3-0.4-4.7-1.1c-1.5-0.7-2.7-1.6-3.8-2.8
			c-1.1-1.2-1.9-2.6-2.5-4.1c-0.6-1.6-0.9-3.2-0.9-4.9c0-1.7,0.3-3.3,0.9-4.9c0.6-1.5,1.4-2.9,2.5-4.1c1.1-1.2,2.3-2.1,3.8-2.8
			c1.5-0.7,3.1-1,4.8-1c2.4,0,4.5,0.5,6.1,1.5c1.6,1,2.9,2.4,3.7,4L4,274.4c-0.7-1.4-1.6-2.4-2.9-3.1s-2.5-1-4-1
			c-1.2,0-2.3,0.3-3.2,0.8c-1,0.5-1.8,1.2-2.5,2c-0.7,0.8-1.2,1.8-1.6,2.9c-0.4,1.1-0.6,2.3-0.6,3.5c0,1.3,0.2,2.5,0.6,3.6
			c0.4,1.1,1,2.1,1.7,2.9c0.7,0.8,1.6,1.5,2.6,2c1,0.5,2.1,0.7,3.2,0.7c1.3,0,2.5-0.3,3.7-0.9s2.3-1.5,3.4-2.8v-2.7h-5.3v-3h8.7
			v12.8H4.5V289.1z"/>
		<path class="st0" d="M25.4,276.9c-1.5,0-2.9,0.4-4.1,1.1c-1.2,0.7-2,1.6-2.5,2.8v11.4h-3.9v-18.7h3.6v4.2c0.6-1.3,1.5-2.3,2.5-3.1
			c1-0.8,2.1-1.2,3.3-1.3c0.2,0,0.4,0,0.6,0c0.2,0,0.3,0,0.4,0V276.9z"/>
		<path class="st0" d="M36,292.6c-0.9,0-1.7-0.1-2.5-0.4c-0.8-0.3-1.4-0.7-2-1.2c-0.6-0.5-1-1.1-1.3-1.9s-0.5-1.5-0.5-2.3
			c0-0.9,0.2-1.7,0.6-2.4c0.4-0.7,0.9-1.3,1.6-1.9c0.7-0.5,1.5-0.9,2.5-1.2s2-0.4,3.2-0.4c0.9,0,1.7,0.1,2.6,0.2
			c0.9,0.2,1.6,0.4,2.3,0.6v-1.3c0-1.4-0.4-2.5-1.2-3.2c-0.8-0.8-1.9-1.2-3.4-1.2c-1,0-2,0.2-2.9,0.6c-1,0.4-2,0.9-3,1.6l-1.2-2.5
			c2.4-1.6,4.9-2.4,7.5-2.4c2.6,0,4.6,0.7,6,2s2.1,3.2,2.1,5.6v6.7c0,0.8,0.3,1.3,1,1.3v3.4c-0.4,0.1-0.7,0.1-1,0.1s-0.5,0-0.8,0
			c-0.8,0-1.4-0.2-1.8-0.6c-0.4-0.4-0.7-0.9-0.8-1.5l-0.1-1.2c-0.8,1.1-1.9,1.9-3.1,2.5S37.4,292.6,36,292.6z M37,289.7
			c1,0,1.9-0.2,2.7-0.5s1.5-0.8,2-1.4c0.5-0.4,0.8-0.9,0.8-1.4v-2.5c-0.7-0.3-1.4-0.5-2.1-0.6c-0.8-0.1-1.5-0.2-2.2-0.2
			c-1.4,0-2.6,0.3-3.4,0.9c-0.9,0.6-1.3,1.4-1.3,2.4c0,0.9,0.3,1.7,1,2.3C35.1,289.4,36,289.7,37,289.7z"/>
		<path class="st0" d="M64.7,292.6c-1.5,0-2.8-0.4-4-1.1s-2-1.6-2.7-2.8v11.1h-3.9v-26.3h3.5v3.4c0.7-1.1,1.6-2,2.8-2.7
			c1.1-0.7,2.4-1,3.8-1c1.3,0,2.5,0.3,3.5,0.8c1.1,0.5,2,1.2,2.8,2.1c0.8,0.9,1.4,1.9,1.8,3.1c0.4,1.2,0.7,2.4,0.7,3.7
			c0,1.4-0.2,2.6-0.6,3.8c-0.4,1.2-1,2.2-1.7,3.1c-0.7,0.9-1.6,1.6-2.6,2.1C67.1,292.3,65.9,292.6,64.7,292.6z M63.4,289.2
			c0.8,0,1.6-0.2,2.3-0.5c0.7-0.4,1.3-0.8,1.7-1.4c0.5-0.6,0.9-1.3,1.1-2c0.3-0.8,0.4-1.5,0.4-2.4c0-0.9-0.1-1.7-0.4-2.4
			c-0.3-0.8-0.7-1.4-1.2-2s-1.1-1-1.8-1.4c-0.7-0.3-1.5-0.5-2.3-0.5c-0.5,0-1,0.1-1.6,0.3c-0.5,0.2-1.1,0.5-1.5,0.8
			c-0.5,0.3-0.9,0.7-1.3,1.2c-0.4,0.4-0.6,0.9-0.7,1.4v4.9c0.2,0.6,0.5,1.1,0.9,1.6s0.8,0.9,1.3,1.3c0.5,0.4,1,0.6,1.5,0.9
			C62.3,289.1,62.9,289.2,63.4,289.2z"/>
		<path class="st0" d="M96.3,292.2h-3.9v-10.5c0-1.7-0.3-3-0.9-3.8c-0.6-0.8-1.5-1.2-2.6-1.2c-0.5,0-1.1,0.1-1.6,0.3
			c-0.5,0.2-1.1,0.5-1.6,0.9c-0.5,0.4-0.9,0.9-1.3,1.4c-0.4,0.5-0.7,1.1-0.9,1.8v11.1h-3.9v-26.1h3.9v11.1c0.7-1.3,1.7-2.3,2.9-3
			c1.2-0.7,2.6-1.1,4-1.1c1.2,0,2.1,0.2,2.9,0.6c0.7,0.4,1.4,1,1.8,1.7c0.5,0.7,0.8,1.5,0.9,2.4c0.2,0.9,0.3,1.9,0.3,2.9V292.2z"/>
		<path class="st0" d="M103.9,270.5v-4.3h3.9v4.3H103.9z M103.9,292.2v-18.7h3.9v18.7H103.9z"/>
		<path class="st0" d="M114.3,282.9c0-1.3,0.2-2.5,0.7-3.7c0.5-1.2,1.1-2.2,1.9-3.1c0.8-0.9,1.9-1.6,3.1-2.1c1.2-0.5,2.5-0.8,4-0.8
			c1.9,0,3.6,0.4,5,1.3c1.4,0.8,2.4,2,3.1,3.4l-3.8,1.2c-0.5-0.8-1.1-1.4-1.8-1.8s-1.6-0.7-2.5-0.7c-0.8,0-1.5,0.2-2.2,0.5
			c-0.7,0.3-1.3,0.7-1.8,1.3c-0.5,0.6-0.9,1.2-1.2,2c-0.3,0.8-0.4,1.6-0.4,2.5c0,0.9,0.1,1.7,0.4,2.5s0.7,1.4,1.2,2s1.1,1,1.8,1.3
			s1.4,0.5,2.2,0.5c0.5,0,1-0.1,1.4-0.2c0.5-0.1,0.9-0.3,1.3-0.6c0.4-0.2,0.7-0.5,1-0.8c0.3-0.3,0.5-0.6,0.7-1l3.9,1.1
			c-0.6,1.4-1.7,2.6-3.1,3.4c-1.5,0.9-3.2,1.3-5.1,1.3c-1.5,0-2.8-0.3-4-0.8c-1.2-0.5-2.2-1.2-3.1-2.1c-0.8-0.9-1.5-1.9-2-3.1
			C114.5,285.4,114.3,284.2,114.3,282.9z"/>
	</g>
	<g class="st1">
		<path class="st0" d="M-13.3,327.4v-25.3h9c2,0,3.8,0.3,5.4,1c1.5,0.7,2.8,1.6,3.9,2.7c1,1.1,1.8,2.5,2.3,4
			c0.5,1.5,0.8,3.2,0.8,4.9c0,1.9-0.3,3.7-0.9,5.2c-0.6,1.6-1.4,2.9-2.5,4c-1.1,1.1-2.4,2-3.9,2.6c-1.5,0.6-3.2,0.9-5.1,0.9H-13.3z
			 M4,314.7c0-1.3-0.2-2.6-0.6-3.7c-0.4-1.1-0.9-2.1-1.6-2.9s-1.6-1.4-2.6-1.9c-1-0.5-2.2-0.7-3.5-0.7h-5v18.3h5
			c1.3,0,2.5-0.2,3.6-0.7c1-0.5,1.9-1.1,2.6-1.9c0.7-0.8,1.2-1.8,1.6-2.9C3.8,317.2,4,316,4,314.7z"/>
		<path class="st0" d="M23.3,327.8c-1.5,0-2.8-0.3-4-0.8c-1.2-0.5-2.2-1.2-3.1-2.1s-1.5-1.9-2-3.1s-0.7-2.4-0.7-3.7s0.2-2.6,0.7-3.7
			s1.1-2.2,2-3.1s1.9-1.6,3.1-2.1c1.2-0.5,2.5-0.8,4-0.8c1.5,0,2.8,0.3,3.9,0.8s2.2,1.2,3,2.1c0.8,0.9,1.5,1.9,1.9,3
			s0.7,2.4,0.7,3.6c0,0.3,0,0.6,0,0.8c0,0.3,0,0.5-0.1,0.6h-15c0.1,0.8,0.3,1.6,0.6,2.2c0.3,0.7,0.7,1.2,1.2,1.7s1.1,0.9,1.7,1.1
			s1.3,0.4,2.1,0.4c0.5,0,1-0.1,1.6-0.2s1-0.3,1.4-0.6c0.4-0.3,0.8-0.6,1.1-0.9c0.3-0.4,0.6-0.8,0.8-1.2l3.4,1
			c-0.6,1.4-1.7,2.6-3.2,3.4C27,327.3,25.2,327.8,23.3,327.8z M28.9,316.7c-0.1-0.8-0.3-1.5-0.6-2.2s-0.7-1.2-1.2-1.7
			c-0.5-0.5-1.1-0.8-1.7-1.1c-0.7-0.3-1.4-0.4-2.1-0.4c-0.7,0-1.4,0.1-2.1,0.4c-0.7,0.3-1.2,0.6-1.7,1.1c-0.5,0.5-0.9,1-1.2,1.7
			c-0.3,0.7-0.5,1.4-0.6,2.2H28.9z"/>
		<path class="st0" d="M45.8,327.8c-1.5,0-3-0.2-4.5-0.7c-1.5-0.5-2.8-1.2-3.8-2.1l1.6-2.5c1.1,0.8,2.2,1.4,3.3,1.8
			c1.1,0.4,2.2,0.6,3.4,0.6c1.2,0,2.1-0.2,2.8-0.7c0.7-0.5,1-1.1,1-1.9c0-0.8-0.4-1.4-1.1-1.7c-0.8-0.4-2-0.7-3.6-1.2
			c-1.2-0.3-2.2-0.6-3-0.9c-0.8-0.3-1.5-0.6-2-1s-0.9-0.8-1.1-1.3c-0.2-0.5-0.4-1.1-0.4-1.8c0-1,0.2-1.8,0.6-2.5
			c0.4-0.7,0.9-1.4,1.5-1.9c0.7-0.5,1.4-0.9,2.3-1.2s1.8-0.4,2.9-0.4c1.4,0,2.7,0.2,3.9,0.6c1.2,0.4,2.3,1,3.2,1.9l-1.7,2.4
			c-1.7-1.4-3.6-2.1-5.5-2.1c-1,0-1.8,0.2-2.5,0.6c-0.7,0.4-1,1.1-1,2c0,0.4,0.1,0.7,0.2,1c0.1,0.3,0.4,0.5,0.7,0.7
			c0.3,0.2,0.7,0.4,1.3,0.5c0.5,0.2,1.1,0.3,1.9,0.5c1.3,0.3,2.4,0.6,3.3,0.9c0.9,0.3,1.7,0.7,2.3,1.1s1,0.9,1.3,1.5
			c0.3,0.6,0.4,1.2,0.4,2c0,1.8-0.7,3.2-2,4.2S48.1,327.8,45.8,327.8z"/>
		<path class="st0" d="M59.7,305.7v-4.3h3.9v4.3H59.7z M59.7,327.4v-18.7h3.9v18.7H59.7z"/>
		<path class="st0" d="M78.8,327.6c-1.3,0-2.4-0.3-3.5-0.8c-1-0.5-1.9-1.2-2.7-2.1c-0.8-0.9-1.3-1.9-1.7-3c-0.4-1.1-0.6-2.3-0.6-3.6
			c0-1.3,0.2-2.6,0.6-3.8s1-2.2,1.8-3.1c0.8-0.9,1.7-1.6,2.7-2.1s2.2-0.8,3.5-0.8c1.5,0,2.8,0.4,3.9,1.1c1.1,0.7,2.1,1.6,2.8,2.8
			v-3.5h3.5v18.1c0,1.4-0.3,2.6-0.8,3.6c-0.5,1-1.2,1.9-2.1,2.7c-0.9,0.7-1.9,1.3-3.2,1.7c-1.2,0.4-2.5,0.6-3.9,0.6
			c-2.1,0-3.8-0.4-5.2-1.1c-1.4-0.7-2.5-1.7-3.4-2.9l2.2-2.1c0.7,1,1.6,1.8,2.8,2.3c1.1,0.5,2.3,0.8,3.6,0.8c0.8,0,1.6-0.1,2.3-0.3
			c0.7-0.2,1.4-0.5,1.9-1c0.5-0.5,1-1,1.3-1.7s0.5-1.5,0.5-2.5V324c-0.7,1.1-1.6,2-2.7,2.6C81.3,327.3,80,327.6,78.8,327.6z
			 M80,324.4c0.6,0,1.2-0.1,1.7-0.3c0.5-0.2,1.1-0.5,1.5-0.8c0.5-0.3,0.9-0.7,1.2-1.2c0.3-0.4,0.6-0.9,0.7-1.4v-4.9
			c-0.2-0.6-0.5-1.1-0.9-1.6c-0.4-0.5-0.8-0.9-1.3-1.3c-0.5-0.4-1-0.6-1.6-0.8c-0.5-0.2-1.1-0.3-1.6-0.3c-0.9,0-1.6,0.2-2.3,0.6
			c-0.7,0.4-1.3,0.9-1.7,1.5c-0.5,0.6-0.8,1.3-1.1,2.1s-0.4,1.5-0.4,2.4c0,0.9,0.1,1.7,0.4,2.4c0.3,0.8,0.7,1.4,1.2,2s1.1,1,1.8,1.3
			C78.4,324.3,79.2,324.4,80,324.4z"/>
		<path class="st0" d="M113.6,327.4h-3.9V317c0-1.8-0.3-3-0.8-3.8c-0.6-0.8-1.4-1.2-2.5-1.2c-0.6,0-1.1,0.1-1.7,0.3
			c-0.6,0.2-1.1,0.5-1.6,0.9s-0.9,0.9-1.3,1.4c-0.4,0.5-0.7,1.1-0.9,1.8v11.1h-3.9v-18.7h3.6v3.7c0.7-1.3,1.7-2.3,3.1-3
			c1.4-0.7,2.9-1.1,4.5-1.1c1.1,0,2,0.2,2.7,0.6s1.3,1,1.7,1.7c0.4,0.7,0.7,1.5,0.9,2.4c0.2,0.9,0.3,1.9,0.3,2.9V327.4z"/>
		<path class="st0" d="M129.6,327.8c-1.5,0-2.8-0.3-4-0.8c-1.2-0.5-2.2-1.2-3.1-2.1c-0.8-0.9-1.5-1.9-2-3.1s-0.7-2.4-0.7-3.7
			s0.2-2.6,0.7-3.7s1.1-2.2,2-3.1c0.8-0.9,1.9-1.6,3.1-2.1c1.2-0.5,2.5-0.8,4-0.8c1.5,0,2.8,0.3,3.9,0.8c1.2,0.5,2.2,1.2,3,2.1
			c0.8,0.9,1.5,1.9,1.9,3c0.4,1.2,0.7,2.4,0.7,3.6c0,0.3,0,0.6,0,0.8s0,0.5-0.1,0.6h-15c0.1,0.8,0.3,1.6,0.6,2.2
			c0.3,0.7,0.7,1.2,1.3,1.7c0.5,0.5,1.1,0.9,1.7,1.1c0.7,0.3,1.3,0.4,2.1,0.4c0.5,0,1-0.1,1.6-0.2s1-0.3,1.4-0.6
			c0.4-0.3,0.8-0.6,1.1-0.9c0.3-0.4,0.6-0.8,0.8-1.2l3.4,1c-0.6,1.4-1.7,2.6-3.2,3.4S131.6,327.8,129.6,327.8z M135.3,316.7
			c-0.1-0.8-0.3-1.5-0.6-2.2s-0.7-1.2-1.2-1.7c-0.5-0.5-1.1-0.8-1.7-1.1c-0.7-0.3-1.4-0.4-2.1-0.4c-0.7,0-1.4,0.1-2.1,0.4
			c-0.7,0.3-1.2,0.6-1.7,1.1c-0.5,0.5-0.9,1-1.2,1.7s-0.5,1.4-0.6,2.2H135.3z"/>
		<path class="st0" d="M155.9,312.1c-1.5,0-2.9,0.4-4.1,1.1s-2,1.6-2.5,2.8v11.4h-3.9v-18.7h3.6v4.2c0.6-1.3,1.5-2.3,2.5-3.1
			s2.1-1.2,3.3-1.3c0.2,0,0.4,0,0.6,0c0.2,0,0.3,0,0.4,0V312.1z"/>
	</g>
</g>
</svg>
